<svg xmlns:xlink="http://www.w3.org/1999/xlink" xmlns="http://www.w3.org/2000/svg" viewBox="0 0 133.01 157.34">
    <defs>
        <style>
            .cls-1{isolation:isolate;}.cls-2,.cls-3,.cls-4,.cls-5{fill-rule:evenodd;}.cls-2{fill:url(#linear-gradient);}.cls-3{fill:url(#linear-gradient-2);}.cls-4{fill:url(#linear-gradient-3);}.cls-5{fill:url(#linear-gradient-4);}.cls-6{mix-blend-mode:screen;}.cls-7{fill:url(#linear-gradient-5);}
        </style>
        <linearGradient id="linear-gradient" x1="80.98" y1="-11.31" x2="37.63" y2="89.19"
                        gradientUnits="userSpaceOnUse">
            <stop offset="0" stop-color="#29abe2"/>
            <stop offset="0.57" stop-color="#2e3192"/>
            <stop offset="1"/>
        </linearGradient>
        <linearGradient id="linear-gradient-2" x1="60.96" y1="6.11" x2="43.89" y2="58.66"
                        gradientUnits="userSpaceOnUse">
            <stop offset="0" stop-color="#66aad7"/>
            <stop offset="0.57" stop-color="#338dc9"/>
            <stop offset="1" stop-color="#0071bc"/>
        </linearGradient>
        <linearGradient id="linear-gradient-3" x1="33.08" y1="163.27" x2="56.73" y2="14.83"
                        xlink:href="#linear-gradient"/>
        <linearGradient id="linear-gradient-4" x1="-6.51" y1="59.79" x2="47.68" y2="206.59"
                        xlink:href="#linear-gradient"/>
        <linearGradient id="linear-gradient-5" x1="69.04" y1="155.54" x2="72.53" y2="8.89"
                        gradientUnits="userSpaceOnUse">
            <stop offset="0.18" stop-color="#fff"/>
            <stop offset="1"/>
        </linearGradient>
    </defs>
    <title>Element 1</title>
    <g class="cls-1">
        <g id="Ebene_2" data-name="Ebene 2">
            <g id="Layer_1" data-name="Layer 1">
                <path class="cls-2"
                      d="M62.62,44.51h42.44a26.22,26.22,0,0,0,19.67-8.28A26.22,26.22,0,0,0,133,16.56V0H28A26.24,26.24,0,0,0,8.28,8.28,26.24,26.24,0,0,0,0,28V44.51H62.62Z"/>
                <polygon class="cls-3"
                         points="43.48 64.18 83.84 64.18 90.57 64.18 62.62 44.51 36.23 44.51 0 44.51 27.95 64.18 27.95 64.18 43.48 64.18"/>
                <path class="cls-4"
                      d="M62.62,109.21a28.29,28.29,0,0,0,19.67-8.28,27.37,27.37,0,0,0,8.28-20.19V64.18H28A27.35,27.35,0,0,0,8.28,72.46C2.59,77.64,0,84.88,0,92.65v16.56H62.62Z"/>
                <path class="cls-5"
                      d="M44.51,156.31v-9.84c0-7.76-2.59-15-8.28-20.18A28.27,28.27,0,0,0,16.56,118H0v11.38a26.22,26.22,0,0,0,8.28,19.67A28.27,28.27,0,0,0,28,157.34H44.51Z"/>
                <g class="cls-6">
                    <path class="cls-7"
                          d="M109.92,41.31A47.73,47.73,0,0,1,79,29.56C56.29,10.15,34.6,6.07,20.38,6.07c-2.16,0-4.15.1-5.95.25A24.64,24.64,0,0,1,28,2.5H130.51V16.56a23.64,23.64,0,0,1-7.46,17.82l-.09.08-.08.09a22.64,22.64,0,0,1-11.63,6.74l-1.32,0Z"/>
                    <path d="M128,5V16.56a21.19,21.19,0,0,1-6.64,16l-.18.16-.16.18a20.17,20.17,0,0,1-10.11,5.93h-1A45.34,45.34,0,0,1,80.57,27.67C64.28,13.7,48.43,7.47,35.37,5H128m5-5H28A26.24,26.24,0,0,0,8.28,8.28,22.06,22.06,0,0,0,6.55,10,62,62,0,0,1,20.38,8.57c13.76,0,34.85,4,56.94,22.89a50,50,0,0,0,32.6,12.35c.56,0,1.11,0,1.66,0a25.12,25.12,0,0,0,13.15-7.55A26.22,26.22,0,0,0,133,16.56V0Z"/>
                </g>
            </g>
        </g>
    </g>
</svg>